# xmcd
#
# Track frame offsets:
#	150
#	18960
#	38156
#	72060
#
# Disc length: 1566 seconds
#
# Revision: 1
# Processed by: cddbd v1.5.1PL0 Copyright (c) Steve Scherf et al.
# Submitted via: audiograbber 1.83.01
#
DISCID=27061c04
DTITLE=Kid Rock - Picture (Single)
DYEAR=1900
DGENRE=
TTITLE0=Picture (Featuring Sherly Crow) (Radio Edit#2
TTITLE1=Picture (Featuring Sherly Crow) (Album Edit)
TTITLE2=Picture (Featuring Sherly Crow) (Album Version)
TTITLE3=Picture (Featuring Sherly Crow) (Video)
EXTD=
EXTT0=
EXTT1=
EXTT2=
EXTT3=
PLAYORDER=
